<svg width="134" height="44" viewBox="0 0 134 44" fill="none" xmlns="http://www.w3.org/2000/svg">
<path d="M8.34511 36V11.057H13.0369V25.3398L12.0634 24.8291L18.5266 19.0522H24.5908L16.1966 26.5526L17.2499 24.6695L24.4471 36H19.2447L14.0103 27.2707L15.2711 27.3665L12.5262 29.856L13.0369 27.7335V36H8.34511ZM24.8227 36V19.0522H29.7219V36H24.8227ZM27.2643 16.2914C26.4983 16.2914 25.828 16.0892 25.2535 15.6849C24.6897 15.2807 24.4077 14.7115 24.4077 13.9774C24.4077 13.2327 24.6897 12.6582 25.2535 12.2539C25.828 11.8496 26.4983 11.6475 27.2643 11.6475C28.0409 11.6475 28.7112 11.8496 29.2751 12.2539C29.8496 12.6582 30.1368 13.2327 30.1368 13.9774C30.1368 14.7221 29.8496 15.2966 29.2751 15.7009C28.7112 16.0945 28.0409 16.2914 27.2643 16.2914ZM38.8571 36.383C37.4421 36.383 36.1388 36.0479 34.9473 35.3776C33.7557 34.6967 32.7982 33.6913 32.0748 32.3615C31.3513 31.0316 30.9896 29.3932 30.9896 27.4463C30.9896 25.5845 31.3566 24.0046 32.0907 22.7066C32.8355 21.4087 33.8036 20.4246 34.9952 19.7543C36.1974 19.0734 37.4847 18.733 38.8571 18.733C40.1976 18.733 41.4211 19.0734 42.5275 19.7543C43.6446 20.4352 44.5383 21.3661 45.2085 22.5471C45.8788 23.7173 46.2139 25.0685 46.2139 26.6005C46.2139 26.6537 46.2139 26.7069 46.2139 26.7601C46.2139 26.8026 46.2139 26.8505 46.2139 26.9037L44.0755 26.9356C44.0755 26.9037 44.0755 26.8718 44.0755 26.8399C44.0755 26.7973 44.0755 26.7601 44.0755 26.7282C44.0755 25.9302 43.884 25.244 43.501 24.6695C43.118 24.095 42.6233 23.6535 42.0169 23.345C41.4104 23.0258 40.7774 22.8662 40.1178 22.8662C39.022 22.8662 38.0751 23.2333 37.2772 23.9674C36.4793 24.6908 36.0803 25.8504 36.0803 27.4463C36.0803 29.0421 36.4793 30.2177 37.2772 30.9731C38.0858 31.7178 39.0326 32.0902 40.1178 32.0902C40.7987 32.0902 41.4424 31.9306 42.0488 31.6114C42.6552 31.2816 43.1446 30.8188 43.5169 30.2231C43.8893 29.6273 44.0755 28.9251 44.0755 28.1165L46.2139 28.2283C46.2139 29.7496 45.8841 31.1274 45.2245 32.3615C44.5755 33.585 43.6925 34.5637 42.5754 35.2978C41.469 36.0213 40.2295 36.383 38.8571 36.383ZM44.0755 36V11.057H49.0386V36H44.0755ZM59.2098 36.383C57.5076 36.383 56.0075 36.1117 54.7095 35.5691C53.4222 35.0265 52.4115 34.218 51.6774 33.1434C50.954 32.0583 50.5923 30.7124 50.5923 29.106C50.5923 28.9357 50.5923 28.7815 50.5923 28.6432C50.5923 28.4942 50.5923 28.3346 50.5923 28.1644H55.5553C55.5553 28.324 55.5553 28.4676 55.5553 28.5953C55.5553 28.7123 55.5553 28.8506 55.5553 29.0102C55.5553 30.106 55.8639 30.9465 56.4809 31.5316C57.098 32.1168 58.0129 32.4094 59.2258 32.4094C60.4492 32.4094 61.3908 32.2179 62.0504 31.8349C62.71 31.4412 63.0398 30.7976 63.0398 29.9039C63.0398 29.2762 62.7898 28.723 62.2898 28.2442C61.8004 27.7655 61.1301 27.3399 60.279 26.9675C59.4385 26.5845 58.4757 26.2281 57.3905 25.8983C56.2096 25.526 55.1138 25.0366 54.1031 24.4302C53.0924 23.8237 52.2785 23.0524 51.6615 22.1162C51.0551 21.18 50.7518 20.0256 50.7518 18.6532C50.7518 17.2701 51.1189 16.0945 51.853 15.1264C52.5871 14.1476 53.5871 13.4029 54.8532 12.8922C56.1192 12.3709 57.5501 12.1103 59.146 12.1103C60.8163 12.1103 62.2898 12.3709 63.5664 12.8922C64.8538 13.4029 65.8591 14.1742 66.5826 15.2062C67.3167 16.2275 67.6837 17.5042 67.6837 19.0362C67.6837 19.2064 67.6837 19.366 67.6837 19.515C67.6837 19.6533 67.6837 19.8129 67.6837 19.9937H62.7366C62.7366 19.8767 62.7366 19.7543 62.7366 19.6267C62.7366 19.499 62.7366 19.3767 62.7366 19.2596C62.7366 18.2276 62.4494 17.435 61.8749 16.8818C61.311 16.3286 60.4226 16.052 59.2098 16.052C58.0395 16.052 57.1299 16.2648 56.4809 16.6903C55.8426 17.1159 55.5234 17.7702 55.5234 18.6532C55.5234 19.2915 55.7521 19.8341 56.2096 20.281C56.6777 20.7278 57.3161 21.1268 58.1246 21.4778C58.9332 21.8289 59.8535 22.18 60.8854 22.5311C62.2898 23.0205 63.5133 23.5631 64.5559 24.1589C65.6091 24.744 66.423 25.4834 66.9975 26.3771C67.572 27.2601 67.8593 28.3878 67.8593 29.7603C67.8593 31.1646 67.4975 32.3615 66.7741 33.3509C66.0506 34.3403 65.0346 35.0957 63.726 35.617C62.4281 36.1277 60.9227 36.383 59.2098 36.383ZM69.313 36V19.0522H74.2122V36H69.313ZM71.7546 16.2914C70.9886 16.2914 70.3184 16.0892 69.7439 15.6849C69.18 15.2807 68.8981 14.7115 68.8981 13.9774C68.8981 13.2327 69.18 12.6582 69.7439 12.2539C70.3184 11.8496 70.9886 11.6475 71.7546 11.6475C72.5313 11.6475 73.2015 11.8496 73.7654 12.2539C74.3399 12.6582 74.6271 13.2327 74.6271 13.9774C74.6271 14.7221 74.3399 15.2966 73.7654 15.7009C73.2015 16.0945 72.5313 16.2914 71.7546 16.2914ZM84.5922 36.3511C83.9432 36.3511 83.2729 36.2926 82.5814 36.1755C81.9005 36.0692 81.2622 35.8511 80.6664 35.5212C80.0812 35.1808 79.6078 34.6861 79.2461 34.0371C78.8844 33.3881 78.7035 32.5317 78.7035 31.4678C78.7035 31.2338 78.7035 30.9944 78.7035 30.7497C78.7035 30.505 78.7035 30.2603 78.7035 30.0156V22.8822H74.7937V19.0522H75.8948C76.5332 19.0522 77.0385 19.0256 77.4109 18.9724C77.7939 18.9192 78.0758 18.7862 78.2567 18.5734C78.4482 18.35 78.5705 18.0042 78.6237 17.5361C78.6769 17.068 78.7035 16.4243 78.7035 15.6051V13.4667H83.6666V19.0522H88.5977V22.8822H83.6666V28.9783C83.6666 29.1698 83.6666 29.356 83.6666 29.5368C83.6666 29.7177 83.6666 29.8932 83.6666 30.0635C83.6666 30.7976 83.7517 31.3933 83.9219 31.8508C84.1028 32.3083 84.5443 32.537 85.2464 32.537C85.5975 32.537 85.9273 32.5051 86.2359 32.4413C86.555 32.3774 86.7944 32.3136 86.954 32.2498V35.9681C86.7306 36.0638 86.4167 36.1489 86.0125 36.2234C85.6082 36.3085 85.1347 36.3511 84.5922 36.3511ZM97.0223 36.3511C96.3733 36.3511 95.703 36.2926 95.0115 36.1755C94.3306 36.0692 93.6923 35.8511 93.0965 35.5212C92.5113 35.1808 92.0379 34.6861 91.6762 34.0371C91.3145 33.3881 91.1336 32.5317 91.1336 31.4678C91.1336 31.2338 91.1336 30.9944 91.1336 30.7497C91.1336 30.505 91.1336 30.2603 91.1336 30.0156V22.8822H87.2238V19.0522H88.3249C88.9633 19.0522 89.4686 19.0256 89.841 18.9724C90.224 18.9192 90.5059 18.7862 90.6868 18.5734C90.8783 18.35 91.0006 18.0042 91.0538 17.5361C91.107 17.068 91.1336 16.4243 91.1336 15.6051V13.4667H96.0967V19.0522H101.028V22.8822H96.0967V28.9783C96.0967 29.1698 96.0967 29.356 96.0967 29.5368C96.0967 29.7177 96.0967 29.8932 96.0967 30.0635C96.0967 30.7976 96.1818 31.3933 96.352 31.8508C96.5329 32.3083 96.9744 32.537 97.6766 32.537C98.0276 32.537 98.3574 32.5051 98.666 32.4413C98.9851 32.3774 99.2245 32.3136 99.3841 32.2498V35.9681C99.1607 36.0638 98.8468 36.1489 98.4426 36.2234C98.0383 36.3085 97.5648 36.3511 97.0223 36.3511ZM103.925 29.0102V25.7387H115.16L114.681 26.5686C114.681 26.4835 114.681 26.4037 114.681 26.3292C114.681 26.2441 114.681 26.1643 114.681 26.0898C114.681 25.4834 114.537 24.9036 114.25 24.3504C113.963 23.7865 113.516 23.329 112.91 22.9779C112.314 22.6162 111.548 22.4354 110.612 22.4354C109.675 22.4354 108.867 22.6375 108.186 23.0418C107.516 23.4354 107 24.0046 106.638 24.7493C106.287 25.494 106.111 26.393 106.111 27.4463C106.111 28.5315 106.282 29.4624 106.622 30.239C106.973 31.005 107.489 31.5955 108.17 32.0104C108.861 32.4253 109.718 32.6328 110.739 32.6328C111.399 32.6328 111.968 32.5743 112.447 32.4572C112.926 32.3296 113.314 32.17 113.612 31.9785C113.92 31.787 114.154 31.5742 114.314 31.3401C114.474 31.1061 114.569 30.8773 114.601 30.6539H119.484C119.421 31.3667 119.176 32.0689 118.75 32.7604C118.325 33.4413 117.734 34.0584 116.979 34.6116C116.224 35.1542 115.303 35.5851 114.218 35.9042C113.144 36.2234 111.915 36.383 110.532 36.383C108.659 36.383 107.026 36.0106 105.633 35.2659C104.239 34.5105 103.159 33.4733 102.393 32.154C101.627 30.8242 101.244 29.2921 101.244 27.558C101.244 25.8026 101.632 24.2652 102.409 22.946C103.196 21.6162 104.287 20.5842 105.68 19.8501C107.085 19.1054 108.707 18.733 110.548 18.733C112.431 18.733 114.059 19.1107 115.431 19.866C116.803 20.6108 117.862 21.6587 118.607 23.0099C119.351 24.3504 119.724 25.9143 119.724 27.7016C119.724 27.9676 119.719 28.2229 119.708 28.4676C119.697 28.7123 119.681 28.8932 119.66 29.0102H103.925ZM121.22 36V19.0522H126.183V24.8929L125.161 24.2546C125.278 23.4567 125.491 22.7226 125.8 22.0523C126.108 21.3821 126.507 20.8023 126.997 20.3129C127.486 19.8129 128.066 19.4245 128.736 19.1479C129.417 18.8713 130.194 18.733 131.066 18.733C131.747 18.733 132.279 18.7862 132.662 18.8926C133.056 18.9883 133.3 19.0628 133.396 19.116L132.582 23.5524C132.486 23.4992 132.274 23.4141 131.944 23.2971C131.614 23.1801 131.188 23.1216 130.667 23.1216C129.816 23.1216 129.103 23.2652 128.529 23.5524C127.954 23.8397 127.491 24.2227 127.14 24.7014C126.8 25.1696 126.555 25.6909 126.406 26.2654C126.257 26.8399 126.183 27.4197 126.183 28.0048V36H121.22Z" fill="#EF1C23"/>
<path d="M114.768 3C115.538 1.66667 117.462 1.66667 118.232 3L123.861 12.75C124.631 14.0833 123.669 15.75 122.129 15.75H110.871C109.331 15.75 108.369 14.0833 109.139 12.75L114.768 3Z" fill="#00ADEF"/>
</svg>
